<svg xmlns="http://www.w3.org/2000/svg" viewBox="0 0 64 64">
  <defs>
    <linearGradient id="brushGradient" x1="0%" y1="0%" x2="100%" y2="100%">
      <stop offset="0%" stop-color="#e74c3c"/>
      <stop offset="100%" stop-color="#f39c12"/>
    </linearGradient>
  </defs>
  <rect width="64" height="64" rx="12" fill="#2c3e50"/>
  <path d="M16 32c4-8 18-22 30-16 2 1 4 3 4 6 0 11-14 26-22 34-4 4-12 2-14-4-4-10-3-18 2-20z" fill="url(#brushGradient)"/>
  <path d="M38 24c1 1 0 4-2 5s-5 1-6 0-1-4 1-5 5-1 7 0z" fill="#ffffff" opacity="0.8"/>
  <path d="M22 44c4 4 10 5 14 2 2-1 5-4 6-7l-6-6c-1 2-4 5-6 6-3 2-7 4-8 5z" fill="#bdc3c7"/>
</svg>
